<svg xmlns="http://www.w3.org/2000/svg" xmlns:xlink="http://www.w3.org/1999/xlink" width="80" height="80" viewBox="0 0 80 80">
  <defs>
    <style>
      .cls-1 {
        fill-rule: evenodd;
        fill: url(#linear-gradient);
      }
    </style>
    <linearGradient id="linear-gradient" x1="29.398" y1="19.063" x2="50.633" y2="59" gradientUnits="userSpaceOnUse">
      <stop offset="0" stop-color="#fa0ee1"/>
      <stop offset="1" stop-color="#ae19e7"/>
    </linearGradient>
  </defs>
  <path id="Forma_319_1" data-name="Forma 319 1" class="cls-1" d="M39.057,19.049a12.132,12.132,0,0,1,1.857.038l0.85,0.056c0.388,0.068.781,0.044,1.15,0.113,0.477,0.089.954,0.1,1.407,0.194,0.7,0.144,1.388.224,2.044,0.394a27.216,27.216,0,0,1,3.1.875c0.387,0.152.772,0.262,1.15,0.413,0.6,0.239,1.183.515,1.757,0.769l0.675,0.325,1.044,0.569c0.37,0.221.735,0.455,1.094,0.681a25.156,25.156,0,0,1,2.151,1.582c0.3,0.239.563,0.535,0.863,0.775a5.611,5.611,0,0,1,.769.757l0.463,0.482,0.756,0.882c0.51,0.655,1.013,1.323,1.463,2.038,0.258,0.409.492,0.835,0.738,1.257,0.124,0.213.2,0.443,0.319,0.65,0.287,0.488.586,0.963,0.907,1.419,0.617,0.877,1.3,1.679,1.963,2.507L66.7,37.056l0.219,0.213a4.092,4.092,0,0,0,.606.6l0.494,0.475c0.447,0.359.854,0.761,1.313,1.113,0.3,0.228.59,0.462,0.9,0.681l0.281,0.206,0.55,0.037a8.847,8.847,0,0,1,1.05.225,3.691,3.691,0,0,1,2.7,2.639,3.507,3.507,0,0,1-.031,1.982c-0.746,1.738-4.071,1.345-5.933.863l-0.894-.219c-0.46-.138-0.922-0.264-1.363-0.425a1.8,1.8,0,0,0-.45-0.15,1.934,1.934,0,0,1-.444.475,6.538,6.538,0,0,1-1.088.832l-1.582,8.172-0.225,1.213a7.688,7.688,0,0,1-.131.807,3.088,3.088,0,0,1-1.094,1.676,2.952,2.952,0,0,1-1.138.488,4.568,4.568,0,0,1-.888.038H21.733a6.729,6.729,0,0,1-3.332-.425,2.6,2.6,0,0,1-1.113-1.294,4.88,4.88,0,0,1-.156-0.663l-0.275-1.369-1.288-6.359-0.331-1.644a3.758,3.758,0,0,0-.156-0.732,1.72,1.72,0,0,1-.338-0.238,4.465,4.465,0,0,1-1.044-.994,12.5,12.5,0,0,1-1.338.463c-0.338.106-.687,0.189-1.044,0.288-1.4.387-3.734,0.761-5.152,0.138A1.809,1.809,0,0,1,5.146,45a3.293,3.293,0,0,1-.069-0.444A2.71,2.71,0,0,1,5.1,43.746,4.923,4.923,0,0,1,5.365,42.7a3.909,3.909,0,0,1,2.745-2.17,7.814,7.814,0,0,1,.875-0.163l0.438-.025,0.25-.188c0.306-.219.594-0.453,0.888-0.681,0.491-.382.92-0.826,1.4-1.213l0.494-.488a4.3,4.3,0,0,0,.325-0.325l0.331-.331c0.369-.457.816-0.851,1.182-1.313,0.668-.844,1.342-1.678,1.969-2.57,0.329-.467.613-0.967,0.907-1.469l0.275-.581,0.569-.994c0.406-.653.833-1.284,1.288-1.888L20.12,27.3l0.707-.775,0.212-.206a3.026,3.026,0,0,1,.444-0.438c0.217-.175.4-0.393,0.619-0.569,0.464-.372.9-0.788,1.388-1.138a25.294,25.294,0,0,1,4.627-2.676,30.531,30.531,0,0,1,4.67-1.569c0.736-.187,1.5-0.3,2.269-0.463,0.668-.14,1.371-0.157,2.069-0.275l0.638-.056Zm-0.25,2.12a2.478,2.478,0,0,0-.35.131,2.522,2.522,0,0,0-.888,1.569c-0.052.206-.063,0.428-0.1,0.65a3.3,3.3,0,0,0,.019,1.019c0.151,0.838.356,1.762,1.188,1.9a1.2,1.2,0,0,0,.988-0.706,4.528,4.528,0,0,0,.094-3.92A1.015,1.015,0,0,0,38.807,21.169ZM46,22.182l-0.231.031a1.07,1.07,0,0,0-.444.225A1.351,1.351,0,0,0,45.409,24a4.77,4.77,0,0,0,2.345,1.9,1.948,1.948,0,0,0,1.744-.025c0.523-.413.145-1.281-0.112-1.676A4.412,4.412,0,0,0,46,22.182Zm-14.286.488L31.4,22.7a3.736,3.736,0,0,0-.606.169A4.744,4.744,0,0,0,28.472,24.8c-0.24.394-.58,1.251-0.081,1.644a1.781,1.781,0,0,0,1.626.044,4.709,4.709,0,0,0,2.532-2.2C32.909,23.466,32.769,22.661,31.711,22.669Zm-12.866,24.9,1.6,7.966H59.376l0.169-.919L59.813,53.2l0.75-3.927,0.331-1.707a3.866,3.866,0,0,1-.775-0.081,8.3,8.3,0,0,1-1.851-.519,17.447,17.447,0,0,1-2.795.982c-0.352.09-.706,0.123-1.088,0.194a7.256,7.256,0,0,1-2.419-.006,8.151,8.151,0,0,1-1.338-.338,8.936,8.936,0,0,1-2.2-1.226c-0.257-.194-0.476-0.431-0.725-0.631L47.466,45.7l-1.607.788c-0.68.3-1.355,0.612-2.063,0.894a14.307,14.307,0,0,1-1.8.55c-0.358.09-.748,0.133-1.144,0.2l-0.531.031H39.77l-0.663.006-0.581-.044a11.8,11.8,0,0,1-1.325-.25,20.22,20.22,0,0,1-2.145-.75c-0.512-.218-1.008-0.48-1.507-0.7L32.073,45.7l-0.35.356-0.325.294-0.638.5a7.739,7.739,0,0,1-2.62,1.188,9.434,9.434,0,0,1-5.164-.456l-1.032-.4-0.481-.219-0.732.269A6.277,6.277,0,0,1,18.844,47.566Z"/>
</svg>
